<mxfile host="app.diagrams.net" modified="2024-05-30T10:12:30.257Z" agent="Mozilla/5.0 (Windows NT 10.0; Win64; x64) AppleWebKit/537.36 (KHTML, like Gecko) Chrome/125.0.0.0 Safari/537.36 Edg/125.0.0.0" etag="3RVAzDQcE_D605MzWKlV" version="24.4.10" type="onedrive">
  <diagram name="ページ1" id="EWAIjD8L8JI5qso1-bE_">
    <mxGraphModel grid="0" page="0" gridSize="10" guides="1" tooltips="1" connect="1" arrows="1" fold="1" pageScale="1" pageWidth="827" pageHeight="1169" math="0" shadow="0">
      <root>
        <mxCell id="0" />
        <mxCell id="1" parent="0" />
        <mxCell id="TqYOlWsBsvLIpTBG76by-6" style="edgeStyle=none;curved=1;rounded=0;orthogonalLoop=1;jettySize=auto;html=1;exitX=0.5;exitY=1;exitDx=0;exitDy=0;fontSize=12;startSize=8;endSize=8;" edge="1" parent="1" source="TqYOlWsBsvLIpTBG76by-1">
          <mxGeometry relative="1" as="geometry">
            <mxPoint x="98" y="40.3333740234375" as="targetPoint" />
          </mxGeometry>
        </mxCell>
        <mxCell id="TqYOlWsBsvLIpTBG76by-1" value="list.append(Item)" style="rounded=1;whiteSpace=wrap;html=1;" vertex="1" parent="1">
          <mxGeometry x="38" y="-40" width="120" height="60" as="geometry" />
        </mxCell>
        <mxCell id="TqYOlWsBsvLIpTBG76by-5" style="edgeStyle=none;curved=1;rounded=0;orthogonalLoop=1;jettySize=auto;html=1;exitX=0.5;exitY=1;exitDx=0;exitDy=0;entryX=0.5;entryY=0;entryDx=0;entryDy=0;fontSize=12;startSize=8;endSize=8;" edge="1" parent="1" source="TqYOlWsBsvLIpTBG76by-3" target="TqYOlWsBsvLIpTBG76by-1">
          <mxGeometry relative="1" as="geometry" />
        </mxCell>
        <mxCell id="TqYOlWsBsvLIpTBG76by-3" value="関数aditem()&lt;div&gt;開始&lt;/div&gt;" style="rounded=0;whiteSpace=wrap;html=1;" vertex="1" parent="1">
          <mxGeometry x="38" y="-121" width="120" height="60" as="geometry" />
        </mxCell>
        <mxCell id="TqYOlWsBsvLIpTBG76by-4" value="終了" style="rounded=0;whiteSpace=wrap;html=1;" vertex="1" parent="1">
          <mxGeometry x="38" y="41" width="120" height="60" as="geometry" />
        </mxCell>
      </root>
    </mxGraphModel>
  </diagram>
</mxfile>
